<?xml version="1.0" encoding="UTF-8"?>
<svg id="Layer_2" data-name="Layer 2" xmlns="http://www.w3.org/2000/svg" viewBox="0 0 144.37 142.02">
  <defs>
    <style>
      .cls-1 {
        fill: #fff;
      }

      .cls-1, .cls-2 {
        stroke-width: 0px;
      }

      .cls-2 {
        fill: #990f4b;
      }
    </style>
  </defs>
  <g id="Layer_3" data-name="Layer 3">
    <g id="Text_Medium" data-name="Text Medium">
      <g id="Text_Medium-2" data-name="Text Medium">
        <path class="cls-2" d="M138.69,55.02l-3.05-.12c-1.78-3.52,2.49-4.88,3.7-6.36,1.92.08,3.93-2.52,4.96.58.61,3.86-2.51,5.26-5.6,5.9Z"/>
        <path class="cls-2" d="M111.08,78.47c2.89,4.33-8.12,1.96-3.81,9.03,1.48,1.21,4.3-2.12,5.32.99-.57,13.84,9.29,28.12,17.39,40.34.38.58-.07,1.32-.76,1.29-2.84-.13-6.36,1.46-8.72-1.1-5.16-4.8-6.51-18.64-16.34-12.54-9.88,2.85-21.26.51-30.37-4.6-1.14-.64-2.54-.61-3.68.04-12.23,6.94-4.94,29.09-16.78,30.05-4.76.58-5.59-3.68-6.61-6.78-2.47-7.79,3.63-14.9,1.18-22.04-.43-1.26-1.8-1.94-3.09-1.61-3.16.8-6.34,1.98-9.41.6-8.93-6.01-19.87-10.81-27.33-16.26-1.06-.77-1.05-2.35,0-3.14,3.42-2.61,8.23-3.57,9.67-7.36-3.76-1.69-1.58-8.11-7.37-7.19-2.15-3.54,1.81-6.82,4.2-9.03-2.47-5.08-19.57,1.11-13.13-6.66-.98-4.25,5.41-1.31,6.97-2.02.34,1.16,1.43,2.36,2.17,3.16,10.96-5.68,23.21-5.56,34.15-10.86.03-9.39-9.27-14.42-13.25-22.82-.5-1.06.85-2.01,1.7-1.19,1.31,1.27,2.57,3.08,4.04,4.31.85.71,1.94,1.08,3.05,1.08l7.53-.02c2.35-10.62,12.56-7.53,17.05-14.24.68,1.94-.24,5.74,1.2,8.09-.68,7.25,8.33,2.25,9.62,8.06,4.59.19,7.5-5.44,11.42-7.57-.56-5.01,3.77-7.89,2.43-12.54,1.33-4.54,4.53,1.71,6.87.66-2.29,9.09-8.42,18.42-6.52,28.08,6.08-.51-.84,6.29,4.92,5.24.15-.03.3-.1.42-.19l3.38-2.8c.15-.13.39-.03.4.17.06,1.6.77,2.86,2.66,3.04.16.01.32-.03.46-.12,2.58-1.7,5.48-3.71,7.78-6.08.13-.14.37-.06.38.13.13,1.9-.4,4.76,1.69,6.32.17.12.38.16.58.11,1.02-.26,4.28-1.07,5.65-1.42.13-.03.19.13.08.21-5.09,3.53-8.16,8.5-8.85,14.27-.02.19.05.39.21.5,1.95,1.37,4.53-1.13,5.58-.94.18.03.22.29.06.38-1.23.71-3.68,1.92-4.06,3.53-.05.21.07.42.26.51,6.28,3.17,16.06,5,22.23,2.45.07-.03.12.05.07.11-1.25,1.23-.06,1.22.59,2.08.25.33.05.83-.36.93-7.58,1.83-16.09,2.3-22.92,5.38Z"/>
        <path class="cls-1" d="M78.98,60.88c-.46-.68-.82-1.46-1.82-3.38-.95-1.84-2.02-5.13-2.04-5.18l-4.31-11.4v42.94c-2.32-1.17-5.32-1.59-8.41-.95-6.06,1.25-10.2,6.03-9.24,10.69.96,4.66,6.65,7.42,12.71,6.18,5.34-1.1,9.37-4.56,9.37-9.03,0-3.48.04-27.38.04-27.38,0,0,0,0,0,0,3.61,6.56,9.23,9.81,9.23,17.03,0,6.1-3.14,13.81-3.14,13.81.23-.18,3.03-3.88,4.6-12.81,1.19-6.79-4.39-16.63-6.98-20.51Z"/>
        <path class="cls-2" d="M78.67,18.93c-2.72,1.04-4.78-4.79-1.34-4.64,2.29.09,4.44,3.63,1.34,4.64Z"/>
        <path class="cls-2" d="M108.28,14.61c-1.21-1.59.17-4.74,1.97-5.07,1.8-2.88,4.02-1.61,4.48,1.57.3,1.67-.68,3.6-2.05,4.64-1.37,1.62-3.14.37-4.4-1.14Z"/>
        <path class="cls-2" d="M52.08,5.4c-1.1-1.2-1.75-3.9-.93-5.4,2.3.09,2.9,3.95.93,5.4Z"/>
      </g>
    </g>
  </g>
</svg>